<?xml version="1.0" standalone="no"?>
<!DOCTYPE svg PUBLIC "-//W3C//DTD SVG 20010904//EN"
 "http://www.w3.org/TR/2001/REC-SVG-20010904/DTD/svg10.dtd">
<svg version="1.0" xmlns="http://www.w3.org/2000/svg"
 width="260.000000pt" height="260.000000pt" viewBox="0 0 260.000000 260.000000"
 preserveAspectRatio="xMidYMid meet">
<metadata>
Created by potrace 1.11, written by Peter Selinger 2001-2013
</metadata>
<g transform="translate(0.000000,260.000000) scale(0.100000,-0.100000)"
fill="#000000" stroke="none">
<path d="M282 2534 c-71 -17 -93 -28 -144 -74 -29 -25 -59 -65 -77 -103 l-30
-62 3 -618 c2 -340 6 -620 9 -624 4 -3 3 -13 -1 -22 -8 -17 -8 -50 1 -144 12
-116 79 -214 184 -267 l48 -25 834 -3 835 -3 249 -249 c137 -138 253 -250 258
-250 5 0 9 -4 9 -10 0 -21 61 -10 83 14 l23 24 2 1085 c2 949 0 1088 -13 1113
-8 16 -15 33 -15 37 0 5 -17 31 -37 57 -41 52 -118 105 -179 122 -56 15 -1978
17 -2042 2z m518 -374 c9 5 22 5 29 0 8 -4 26 -4 41 0 15 4 34 3 45 -2 13 -8
16 -7 11 1 -5 7 0 8 16 2 l23 -8 1 -374 c0 -206 4 -392 8 -413 16 -97 76 -171
161 -203 53 -19 232 -25 293 -9 119 32 179 97 195 213 3 17 8 37 12 42 3 6 1
11 -6 11 -7 0 -8 4 -2 13 5 7 9 163 8 365 -1 346 0 353 20 357 11 3 29 5 40 5
11 0 34 1 50 2 17 2 36 -1 43 -6 8 -6 16 -6 20 0 6 8 30 10 57 4 6 -1 12 -2
15 -2 4 0 5 -714 1 -728 -1 -3 -3 -32 -5 -65 -2 -33 -17 -94 -32 -135 -22 -60
-40 -86 -84 -130 -66 -65 -74 -71 -120 -92 -43 -20 -140 -49 -140 -42 0 3 -5
2 -12 -2 -19 -12 -53 -15 -183 -16 -114 0 -151 2 -220 18 -16 3 -36 7 -42 7
-7 0 -13 4 -13 9 0 4 -7 8 -15 8 -34 0 -113 48 -166 100 -67 67 -110 152 -126
252 -6 40 -10 763 -5 796 3 14 10 21 18 18 7 -3 16 0 20 5 4 8 9 8 17 0 6 -6
16 -7 27 -1z"/>
</g>
</svg>
